<svg width="18" height="14" viewBox="0 0 18 14" fill="none" xmlns="http://www.w3.org/2000/svg">
<path d="M15.3936 0.318359C15.8653 0.31847 16.3177 0.506318 16.6514 0.839844C16.9852 1.17363 17.1729 1.62659 17.1729 2.09863V11.8779C17.1728 12.3498 16.985 12.802 16.6514 13.1357C16.3177 13.4694 15.8654 13.6571 15.3936 13.6572H2.35449C1.88245 13.6572 1.42949 13.4695 1.0957 13.1357C0.762185 12.8021 0.574305 12.3497 0.574219 11.8779V2.09863C0.574219 1.62659 0.761919 1.17363 1.0957 0.839844C1.42949 0.50606 1.88245 0.318359 2.35449 0.318359H15.3936ZM9.50977 8.5293C9.33386 8.68342 9.10789 8.7685 8.87402 8.76855C8.64014 8.76855 8.41422 8.6834 8.23828 8.5293L2.50488 3.5127V11.7275H15.2432V3.5127L9.50977 8.5293ZM8.87402 6.52051L13.7549 2.24902H3.99316L8.87402 6.52051Z" fill="#E63A27" stroke="#E63A27" stroke-width="0.3" stroke-linejoin="round"/>
</svg>
