<svg width="18" height="17" viewBox="0 0 18 17" fill="none" xmlns="http://www.w3.org/2000/svg">
<path d="M6.30664 0.318359C6.65406 0.318422 6.99337 0.422583 7.28125 0.616211C7.56925 0.809972 7.79253 1.08505 7.92188 1.40625L9.07324 4.26562L9.12207 4.40625C9.22309 4.7367 9.22281 5.09083 9.11914 5.42285C9.00067 5.80217 8.75492 6.12939 8.42285 6.34961L7.07422 7.24219C7.09505 7.32277 7.11891 7.40253 7.14551 7.48145V7.48242C7.30278 7.95351 7.62787 8.61345 8.30762 9.28906C8.98737 9.96467 9.65147 10.2879 10.125 10.4443C10.1786 10.4621 10.2337 10.476 10.2881 10.4912L10.5078 10.0547C10.6744 9.72361 10.9438 9.45489 11.2754 9.28711C11.6069 9.11939 11.9838 9.0613 12.3506 9.12207L15.8789 9.70605C16.2851 9.77339 16.6545 9.98232 16.9209 10.2949C17.1871 10.6075 17.3331 11.0042 17.333 11.4141V14.8701C17.3328 15.6559 16.7836 16.3996 15.9199 16.5303C14.122 16.8005 8.79344 17.1721 4.58594 12.9902C0.378577 8.8083 0.751684 3.51245 1.02441 1.72461C1.15525 0.864052 1.90557 0.318359 2.69434 0.318359H6.30664ZM2.86719 2.19922C2.63479 3.94278 2.49705 8.25614 5.92188 11.6602C9.34709 15.0645 13.6869 14.9257 15.4424 14.6953V11.54L12.1494 10.9941L11.666 11.9561C11.5875 12.1121 11.4665 12.2433 11.3174 12.335C11.1853 12.4162 11.0352 12.4609 10.8809 12.4707V12.4717C10.8783 12.472 10.8742 12.4725 10.873 12.4727H10.8613C10.8558 12.4729 10.8477 12.4742 10.8408 12.4746C10.8383 12.4747 10.8359 12.4745 10.834 12.4746C10.8298 12.4747 10.8255 12.4756 10.8213 12.4756L10.8203 12.4746V12.4756H10.8027V12.4746L10.7988 12.4736V12.4746C10.6705 12.4703 10.5422 12.459 10.415 12.4414H10.4141C10.1907 12.4088 9.88612 12.3481 9.52734 12.2295C8.8091 11.9907 7.88229 11.5242 6.97168 10.6191C6.0612 9.71416 5.59193 8.79307 5.35156 8.07812C5.2323 7.72252 5.17082 7.4193 5.13867 7.19824L5.1377 7.19727C5.12213 7.08571 5.11434 6.99489 5.10938 6.92773L5.10449 6.81152V6.79688L5.10352 6.79199H5.10449L5.11133 6.67676C5.12556 6.56222 5.16082 6.45095 5.21582 6.34863C5.2893 6.21209 5.39598 6.09558 5.52539 6.00977L7.27148 4.85156L6.20508 2.19922H2.86719Z" fill="#E63A27" stroke="#E63A27" stroke-width="0.3" stroke-linejoin="round"/>
</svg>
