<svg width="18" height="18" viewBox="0 0 18 18" fill="none" xmlns="http://www.w3.org/2000/svg">
<path d="M8.72874 12.3014C10.5809 12.3014 12.0825 10.809 12.0825 8.9681C12.0825 7.12715 10.5809 5.63477 8.72874 5.63477C6.87652 5.63477 5.375 7.12715 5.375 8.9681C5.375 10.809 6.87652 12.3014 8.72874 12.3014Z" stroke="#E63A27" stroke-width="2" stroke-linecap="round" stroke-linejoin="round"/>
<path d="M1.18359 12.3021V5.63542C1.18359 3.33423 3.0605 1.46875 5.37577 1.46875H12.0833C14.3985 1.46875 16.2754 3.33423 16.2754 5.63542V12.3021C16.2754 14.6032 14.3985 16.4688 12.0833 16.4688H5.37577C3.0605 16.4688 1.18359 14.6032 1.18359 12.3021Z" stroke="#E63A27" stroke-width="2"/>
<path d="M13.3418 4.40447L13.3599 4.38477" stroke="#E63A27" stroke-width="2" stroke-linecap="round" stroke-linejoin="round"/>
</svg>
