<svg width="24" height="48" viewBox="0 0 24 48" fill="none" xmlns="http://www.w3.org/2000/svg">
<path d="M4.40205 46.7217C5.56688 39.7447 6.12559 32.7133 6.07427 25.6764L3.54422 26.2147C6.97114 30.509 9.81713 35.074 12.0356 39.8348C12.5242 40.9114 14.7719 40.826 14.7068 39.5528C13.9352 26.6081 17.0721 13.7036 23.8606 1.89683C24.5881 0.657864 22.2535 -0.427294 21.5151 0.820216C14.5007 12.9588 11.2373 26.2315 11.9922 39.5528L14.6634 39.2709C12.3707 34.3329 9.43025 29.5964 5.88966 25.1381C5.73448 24.9414 5.50285 24.7893 5.22913 24.7044C4.95542 24.6195 4.65419 24.6063 4.37017 24.6667C4.08615 24.7271 3.83445 24.858 3.65241 25.0399C3.47037 25.2218 3.36772 25.445 3.35964 25.6764C3.41096 32.7133 2.85225 39.7447 1.68741 46.7217C1.45939 48.0803 4.17402 48.0632 4.40205 46.7217Z" fill="#E63A27"/>
<path d="M1.70503 19.5298C4.55163 19.1518 7.16601 18.0458 9.15237 16.3792C9.37816 16.177 9.49816 15.9137 9.4877 15.6433C9.47724 15.3729 9.33716 15.1159 9.09617 14.9251C8.85518 14.7344 8.53158 14.6243 8.19184 14.6175C7.85211 14.6107 7.52199 14.7077 7.26927 14.8886C7.05649 15.0665 6.82245 15.2443 6.58839 15.4137L6.21602 15.6763C6.15218 15.7186 5.83301 15.9049 6.04579 15.7864C5.52199 16.0994 4.97093 16.3824 4.39675 16.6333C4.12013 16.7519 3.83286 16.862 3.5456 16.9636C3.80094 16.8789 3.42857 16.9636 3.34346 17.0229L2.87534 17.1499C2.2565 17.3091 1.62345 17.4309 0.981586 17.5141C0.641881 17.5875 0.352593 17.7651 0.177098 18.008C0.00160311 18.2509 -0.0457889 18.5393 0.0453437 18.8099C0.149146 19.0762 0.375996 19.3012 0.68009 19.4396C0.984183 19.5779 1.34288 19.6192 1.68377 19.5552L1.70503 19.5298Z" fill="#E63A27"/>
<path d="M2.83381 13.7313C3.39313 16.418 3.52701 19.1451 3.23267 21.8554C3.23556 22.131 3.38242 22.3946 3.64153 22.5895C3.90064 22.7844 4.25122 22.8948 4.61764 22.897C4.9823 22.8906 5.3297 22.7788 5.58762 22.5849C5.84555 22.3909 5.99416 22.1297 6.00261 21.8554C6.29138 18.9566 6.12405 16.0423 5.50404 13.1731C5.45661 13.0415 5.37503 12.9183 5.264 12.8105C5.15297 12.7028 5.01468 12.6126 4.8571 12.5452C4.69952 12.4778 4.52576 12.4346 4.34585 12.4179C4.16594 12.4012 3.98344 12.4115 3.80884 12.4481C3.45741 12.5259 3.15964 12.703 2.97789 12.9422C2.79614 13.1814 2.7445 13.4642 2.83381 13.7313Z" fill="#E63A27"/>
</svg>
