<svg width="345" height="149" viewBox="0 0 345 149" fill="none" xmlns="http://www.w3.org/2000/svg">
<path d="M158.414 87.5703C160.574 74.4884 161.61 61.3045 161.515 48.1104L156.823 49.1197C163.178 57.1715 168.455 65.7307 172.568 74.6573C173.474 76.676 177.642 76.5158 177.521 74.1286C176.09 49.8572 181.907 25.6614 194.494 3.5236C195.843 1.20054 191.514 -0.834135 190.145 1.50495C177.139 24.2647 171.088 49.1511 172.487 74.1286L177.44 73.5999C173.189 64.3412 167.737 55.4603 161.172 47.101C160.885 46.7322 160.455 46.447 159.948 46.2878C159.44 46.1286 158.882 46.1038 158.355 46.2171C157.828 46.3304 157.362 46.5758 157.024 46.9168C156.687 47.2578 156.496 47.6764 156.481 48.1104C156.576 61.3045 155.54 74.4884 153.381 87.5703C152.958 90.1177 157.991 90.0856 158.414 87.5703Z" fill="#E63A27"/>
<path d="M153.411 36.5881C158.69 35.8794 163.537 33.8056 167.22 30.6808C167.639 30.3017 167.861 29.8079 167.842 29.3009C167.822 28.7939 167.563 28.312 167.116 27.9544C166.669 27.5967 166.069 27.3903 165.439 27.3776C164.809 27.3648 164.197 27.5467 163.729 27.8859C163.334 28.2194 162.9 28.5528 162.466 28.8704L161.776 29.3627C161.657 29.4421 161.065 29.7915 161.46 29.5692C160.489 30.1561 159.467 30.6868 158.402 31.1572C157.889 31.3795 157.357 31.586 156.824 31.7765C157.298 31.6177 156.607 31.7765 156.449 31.8877L155.581 32.1259C154.434 32.4243 153.26 32.6526 152.07 32.8087C151.44 32.9463 150.904 33.2793 150.578 33.7347C150.253 34.1901 150.165 34.7309 150.334 35.2383C150.527 35.7376 150.947 36.1596 151.511 36.4189C152.075 36.6783 152.74 36.7558 153.372 36.6358L153.411 36.5881Z" fill="#E63A27"/>
<path d="M155.503 25.7135C156.54 30.751 156.788 35.8643 156.243 40.9462C156.248 41.4629 156.52 41.9572 157.001 42.3226C157.481 42.688 158.131 42.8951 158.811 42.8991C159.487 42.8872 160.131 42.6776 160.609 42.3139C161.087 41.9502 161.363 41.4604 161.379 40.9462C161.914 35.511 161.604 30.0467 160.454 24.6668C160.366 24.4201 160.215 24.1891 160.009 23.987C159.803 23.785 159.547 23.6159 159.255 23.4895C158.963 23.3632 158.64 23.2821 158.307 23.2509C157.973 23.2196 157.635 23.2389 157.311 23.3075C156.659 23.4534 156.107 23.7853 155.77 24.2338C155.433 24.6823 155.338 25.2126 155.503 25.7135Z" fill="#E63A27"/>
<path d="M1.55937 132.562C1.55937 131.292 1.58021 130.021 1.62187 128.75C1.68437 127.458 1.74687 126.177 1.80937 124.906C1.87187 123.615 1.91354 122.333 1.93437 121.062C1.97604 119.771 1.97604 118.49 1.93437 117.219C1.99687 116.99 2.11146 116.823 2.27812 116.719C2.44479 116.594 2.64271 116.531 2.87187 116.531C3.30937 116.531 3.64271 116.615 3.87187 116.781C4.10104 116.927 4.26771 117.135 4.37187 117.406C4.47604 117.677 4.53854 117.979 4.55937 118.312C4.58021 118.646 4.60104 118.979 4.62187 119.312C4.87187 119.771 5.16354 120.219 5.49687 120.656C5.85104 121.073 6.16354 121.5 6.43437 121.938C6.43437 121.958 6.44479 122.01 6.46562 122.094C6.50729 122.156 6.53854 122.188 6.55937 122.188C6.68437 122.375 6.84062 122.625 7.02812 122.938C7.23646 123.229 7.43437 123.521 7.62187 123.812C7.80937 124.083 7.96562 124.323 8.09062 124.531C8.23646 124.74 8.30937 124.844 8.30937 124.844L8.43437 125L10.2469 127.625C10.3302 127.708 10.4031 127.75 10.4656 127.75H10.5281C10.2573 125.542 10.0385 123.292 9.87187 121C9.70521 118.688 9.62187 116.406 9.62187 114.156V112.594C9.78854 112.323 10.0698 112.188 10.4656 112.188C10.8615 112.188 11.1531 112.281 11.3406 112.469C11.5281 112.656 11.6531 112.896 11.7156 113.188C11.7781 113.458 11.8094 113.76 11.8094 114.094C11.8094 114.406 11.8198 114.698 11.8406 114.969C11.8406 114.99 11.851 115.031 11.8719 115.094C11.8927 115.135 11.9135 115.25 11.9344 115.438C11.976 115.604 12.0073 115.875 12.0281 116.25C12.0698 116.604 12.1115 117.104 12.1531 117.75C12.2156 118.396 12.2677 119.208 12.3094 120.188C12.3719 121.167 12.4448 122.365 12.5281 123.781V124.344L13.5906 131.312C13.6115 131.479 13.6948 131.74 13.8406 132.094C14.0073 132.427 14.0906 132.688 14.0906 132.875C14.0906 133.312 13.9656 133.667 13.7156 133.938C13.4656 134.208 13.1115 134.344 12.6531 134.344C12.5906 134.344 12.5073 134.323 12.4031 134.281C12.299 134.219 12.1948 134.156 12.0906 134.094C11.9865 134.031 11.8823 133.969 11.7781 133.906C11.6948 133.823 11.6323 133.76 11.5906 133.719L6.55937 126.562C6.53854 126.562 6.51771 126.531 6.49687 126.469C6.47604 126.385 6.45521 126.323 6.43437 126.281C6.30937 126.094 6.14271 125.865 5.93437 125.594C5.72604 125.302 5.52812 125.021 5.34062 124.75C5.15312 124.458 4.98646 124.208 4.84062 124C4.69479 123.792 4.62187 123.677 4.62187 123.656L4.46562 123.531C4.36146 125.51 4.27812 127.51 4.21562 129.531C4.15312 131.531 4.15312 133.531 4.21562 135.531C4.17396 135.781 4.03854 136 3.80937 136.188C3.60104 136.375 3.38229 136.469 3.15312 136.469C2.73646 136.469 2.40312 136.365 2.15312 136.156C1.92396 135.927 1.72604 135.635 1.55937 135.281V132.562ZM28.8281 132.062C28.599 132.5 28.3177 132.99 27.9844 133.531C27.6719 134.073 27.2969 134.594 26.8594 135.094C26.4427 135.573 25.9844 135.979 25.4844 136.312C25.0052 136.646 24.4844 136.812 23.9219 136.812C23.2135 136.812 22.651 136.604 22.2344 136.188C21.8177 135.771 21.4948 135.26 21.2656 134.656C21.0573 134.031 20.9219 133.385 20.8594 132.719C20.7969 132.031 20.7656 131.417 20.7656 130.875V130.062C20.7865 129.896 20.8073 129.646 20.8281 129.312C20.8698 128.979 20.9115 128.604 20.9531 128.188C21.0156 127.75 21.0677 127.302 21.1094 126.844C21.151 126.365 21.1927 125.917 21.2344 125.5C21.2969 125.062 21.3385 124.677 21.3594 124.344C21.401 124.01 21.4323 123.76 21.4531 123.594C21.3698 123.385 21.3385 123.177 21.3594 122.969C21.401 122.74 21.474 122.542 21.5781 122.375C21.7031 122.188 21.8594 122.042 22.0469 121.938C22.2344 121.812 22.4427 121.75 22.6719 121.75C22.7344 121.75 22.8385 121.771 22.9844 121.812C23.151 121.854 23.3177 121.917 23.4844 122C23.651 122.083 23.7969 122.177 23.9219 122.281C24.0469 122.365 24.1094 122.448 24.1094 122.531V123.719C23.8177 125.969 23.6302 127.76 23.5469 129.094C23.4635 130.427 23.4323 131.469 23.4531 132.219C23.474 132.948 23.5365 133.448 23.6406 133.719C23.7448 133.99 23.849 134.177 23.9531 134.281C24.2031 134.385 24.4427 134.417 24.6719 134.375C24.9219 134.312 25.2135 134.115 25.5469 133.781C25.8802 133.448 26.276 132.938 26.7344 132.25C27.2135 131.542 27.7865 130.604 28.4531 129.438C28.4948 129.375 28.5365 129.26 28.5781 129.094C28.6406 128.927 28.6823 128.812 28.7031 128.75C28.6615 127.375 28.651 125.99 28.6719 124.594C28.7135 123.198 28.7656 121.812 28.8281 120.438C28.9115 120.229 29.0469 120.062 29.2344 119.938C29.4219 119.812 29.6198 119.75 29.8281 119.75C29.9115 119.75 30.0365 119.781 30.2031 119.844C30.3698 119.906 30.5365 120 30.7031 120.125C30.8698 120.229 31.0156 120.344 31.1406 120.469C31.2656 120.594 31.3281 120.719 31.3281 120.844V130.062C31.474 131 31.5885 131.948 31.6719 132.906C31.7552 133.844 31.8698 134.781 32.0156 135.719C32.0156 135.823 32.0365 136.042 32.0781 136.375C32.1406 136.688 32.2031 137.031 32.2656 137.406C32.3281 137.781 32.3802 138.125 32.4219 138.438C32.4844 138.75 32.526 138.948 32.5469 139.031V139.406C32.5469 140.156 32.1406 140.562 31.3281 140.625C30.974 140.667 30.6719 140.51 30.4219 140.156C30.1927 139.823 30.0052 139.375 29.8594 138.812C29.7135 138.271 29.5885 137.656 29.4844 136.969C29.401 136.281 29.3281 135.615 29.2656 134.969C29.2031 134.323 29.1406 133.74 29.0781 133.219C29.0156 132.677 28.9323 132.292 28.8281 132.062ZM23.9219 116.812C23.8594 116.271 23.901 115.844 24.0469 115.531C24.2135 115.219 24.4219 114.938 24.6719 114.688C24.9427 114.438 25.2344 114.177 25.5469 113.906C25.8594 113.635 26.1615 113.26 26.4531 112.781C26.7656 112.531 27.0573 112.448 27.3281 112.531C27.599 112.615 27.849 112.833 28.0781 113.188C28.2031 113.375 28.2552 113.552 28.2344 113.719C28.2344 113.865 28.1927 114.021 28.1094 114.188C28.026 114.333 27.9219 114.469 27.7969 114.594C27.6927 114.719 27.599 114.844 27.5156 114.969C27.349 115.177 27.1094 115.469 26.7969 115.844C26.4844 116.198 26.151 116.521 25.7969 116.812C25.4427 117.083 25.0885 117.25 24.7344 117.312C24.401 117.375 24.1302 117.208 23.9219 116.812ZM39.9094 129.219C39.7844 128.948 39.6802 128.729 39.5969 128.562C39.5344 128.396 39.5031 128.198 39.5031 127.969C39.5031 127.781 39.524 127.615 39.5656 127.469C39.6281 127.302 39.6594 127.125 39.6594 126.938C39.6594 126.479 39.6385 126.052 39.5969 125.656C39.576 125.26 39.5448 124.823 39.5031 124.344C39.4823 124.281 39.4094 124.229 39.2844 124.188C39.1594 124.146 39.024 124.094 38.8781 124.031C38.7323 123.948 38.5969 123.833 38.4719 123.688C38.3677 123.542 38.3156 123.333 38.3156 123.062C38.3156 122.812 38.3677 122.604 38.4719 122.438C38.5969 122.25 38.7219 122.083 38.8469 121.938C38.9719 121.771 39.0865 121.604 39.1906 121.438C39.3156 121.25 39.3781 121.031 39.3781 120.781C39.3781 120.677 39.3677 120.49 39.3469 120.219C39.326 119.927 39.3052 119.625 39.2844 119.312C39.2844 119 39.274 118.708 39.2531 118.438C39.2531 118.146 39.2531 117.948 39.2531 117.844V117.781V117.719C39.3365 117.531 39.399 117.375 39.4406 117.25C39.5031 117.125 39.5656 117.031 39.6281 116.969C39.6906 116.906 39.774 116.865 39.8781 116.844C39.9823 116.802 40.1177 116.781 40.2844 116.781C40.7219 116.781 41.0448 116.865 41.2531 117.031C41.4615 117.198 41.6073 117.396 41.6906 117.625C41.774 117.833 41.826 118.031 41.8469 118.219C41.8677 118.406 41.9198 118.51 42.0031 118.531L44.2531 116.562H44.3781C45.1073 116.083 45.8781 115.719 46.6906 115.469C47.5031 115.198 48.3573 115.062 49.2531 115.062C49.524 115.062 49.8469 115.094 50.2219 115.156C50.6177 115.219 50.9823 115.333 51.3156 115.5C51.6698 115.646 51.9615 115.844 52.1906 116.094C52.4406 116.344 52.5656 116.656 52.5656 117.031C52.5656 117.448 52.5135 117.875 52.4094 118.312C52.3052 118.75 52.1594 119.188 51.9719 119.625C51.8052 120.042 51.5969 120.448 51.3469 120.844C51.1177 121.219 50.8677 121.542 50.5969 121.812C50.4927 122.042 49.826 122.625 48.5969 123.562C47.3677 124.5 45.5344 125.896 43.0969 127.75L58.0969 128.688C58.3052 128.708 58.5865 128.729 58.9406 128.75C59.3156 128.75 59.6698 128.781 60.0031 128.844C60.3573 128.906 60.6594 129.031 60.9094 129.219C61.1594 129.385 61.2844 129.646 61.2844 130C61.2844 130.188 61.2531 130.344 61.1906 130.469C61.149 130.573 61.0865 130.667 61.0031 130.75C60.9406 130.812 60.8573 130.875 60.7531 130.938C60.6698 131 60.5865 131.083 60.5031 131.188H59.9719H59.4406C59.024 131.146 58.5865 131.094 58.1281 131.031C57.6906 130.969 57.1698 130.896 56.5656 130.812C55.9823 130.729 55.2948 130.646 54.5031 130.562C53.7115 130.479 52.7635 130.406 51.6594 130.344C50.5552 130.281 49.2635 130.229 47.7844 130.188C46.326 130.146 44.6281 130.125 42.6906 130.125C42.6698 130.125 42.6385 130.156 42.5969 130.219C42.576 130.281 42.5656 130.333 42.5656 130.375C42.5656 131.167 42.6281 131.948 42.7531 132.719C42.899 133.469 42.9719 134.219 42.9719 134.969C42.9719 135.115 42.951 135.281 42.9094 135.469C42.8885 135.635 42.8365 135.802 42.7531 135.969C42.6698 136.115 42.5656 136.24 42.4406 136.344C42.3156 136.448 42.1594 136.5 41.9719 136.5C41.8469 136.5 41.701 136.479 41.5344 136.438C41.3677 136.375 41.201 136.292 41.0344 136.188C40.8885 136.083 40.7531 135.969 40.6281 135.844C40.5031 135.719 40.4302 135.573 40.4094 135.406L39.9094 129.219ZM42.0031 122.312C42.0031 122.833 42.0135 123.323 42.0344 123.781C42.0552 124.24 42.0865 124.74 42.1281 125.281H42.2219C42.2427 125.281 42.2948 125.26 42.3781 125.219C42.4615 125.177 42.6698 125.052 43.0031 124.844C43.3365 124.615 43.8469 124.271 44.5344 123.812C45.2219 123.333 46.1906 122.667 47.4406 121.812C47.6906 121.667 47.9615 121.417 48.2531 121.062C48.5448 120.708 48.8156 120.323 49.0656 119.906C49.3156 119.49 49.524 119.083 49.6906 118.688C49.8573 118.271 49.9406 117.927 49.9406 117.656C49.9406 117.448 49.8365 117.344 49.6281 117.344C49.4406 117.344 49.274 117.344 49.1281 117.344C48.8156 117.344 48.4615 117.396 48.0656 117.5C47.6698 117.604 47.1906 117.812 46.6281 118.125C46.0865 118.438 45.4302 118.885 44.6594 119.469C43.9094 120.052 43.024 120.833 42.0031 121.812V122.312ZM67.0531 118.781C67.2198 118.552 67.3656 118.406 67.4906 118.344C67.6365 118.26 67.8344 118.219 68.0844 118.219C68.4177 118.219 68.7302 118.312 69.0219 118.5C69.3344 118.688 69.5115 118.958 69.5531 119.312C69.6365 119.896 69.6781 120.49 69.6781 121.094C69.699 121.677 69.699 122.271 69.6781 122.875C69.6781 123.458 69.6677 124.052 69.6469 124.656C69.6469 125.24 69.6677 125.823 69.7094 126.406C69.7927 127.823 69.9177 129.292 70.0844 130.812C70.2719 132.333 70.3656 133.802 70.3656 135.219C70.3656 135.635 70.2823 135.948 70.1156 136.156C69.949 136.365 69.626 136.469 69.1469 136.469C68.751 136.469 68.449 136.333 68.2406 136.062C68.0323 135.792 67.876 135.469 67.7719 135.094C67.6885 134.719 67.6365 134.344 67.6156 133.969C67.5948 133.573 67.5844 133.26 67.5844 133.031C67.5844 132.865 67.5635 132.521 67.5219 132C67.501 131.458 67.4698 130.833 67.4281 130.125C67.4073 129.396 67.376 128.635 67.3344 127.844C67.2927 127.031 67.251 126.271 67.2094 125.562C67.1677 124.833 67.126 124.208 67.0844 123.688C67.0635 123.146 67.0531 122.792 67.0531 122.625V120.688V118.781ZM76.7281 134.5C76.7281 133.25 76.8115 132.01 76.9781 130.781C77.1448 129.552 77.2906 128.323 77.4156 127.094C77.4156 127.031 77.426 126.896 77.4469 126.688C77.4677 126.458 77.4885 126.219 77.5094 125.969C77.551 125.719 77.5823 125.49 77.6031 125.281C77.6448 125.052 77.6656 124.906 77.6656 124.844V124.719L78.9781 114.969C78.9365 114.552 78.999 114.188 79.1656 113.875C79.3531 113.542 79.6865 113.375 80.1656 113.375C80.6865 113.312 81.1135 113.385 81.4469 113.594C81.801 113.781 82.0927 114.031 82.3219 114.344C82.551 114.656 82.7385 115 82.8844 115.375C83.0302 115.75 83.1865 116.094 83.3531 116.406C83.4573 116.698 83.5823 117.042 83.7281 117.438C83.8948 117.833 84.0823 118.333 84.2906 118.938C84.5198 119.542 84.7802 120.281 85.0719 121.156C85.3844 122.031 85.7385 123.094 86.1344 124.344L86.2594 124.469C86.4052 124.385 86.676 124.25 87.0719 124.062C87.4885 123.875 87.9156 123.677 88.3531 123.469C88.8115 123.26 89.2385 123.062 89.6344 122.875C90.0302 122.688 90.3115 122.562 90.4781 122.5C90.499 122.458 90.551 122.427 90.6344 122.406C90.7385 122.365 90.8115 122.333 90.8531 122.312H90.9156C91.124 122.312 91.2802 122.396 91.3844 122.562C91.4885 122.708 91.5406 122.854 91.5406 123C91.5406 123.229 91.4885 123.427 91.3844 123.594C91.2802 123.76 91.1552 123.917 91.0094 124.062C90.8844 124.188 90.7385 124.312 90.5719 124.438C90.426 124.562 90.3115 124.698 90.2281 124.844L87.1344 126.406C87.051 126.51 87.0094 126.594 87.0094 126.656C87.0094 126.823 87.0927 127.083 87.2594 127.438C87.4469 127.792 87.5927 128.073 87.6969 128.281C87.7594 128.406 87.8635 128.635 88.0094 128.969C88.1552 129.302 88.3115 129.646 88.4781 130C88.6448 130.354 88.801 130.698 88.9469 131.031C89.1135 131.344 89.2281 131.562 89.2906 131.688V131.781C89.2906 132.531 88.9156 132.906 88.1656 132.906C87.9365 132.906 87.6969 132.885 87.4469 132.844C87.1969 132.781 87.0094 132.625 86.8844 132.375L84.7906 127.906H84.5094C83.7177 128.51 82.874 129.104 81.9781 129.688C81.0823 130.271 80.1656 130.771 79.2281 131.188C79.0823 131.938 78.9885 132.698 78.9469 133.469C78.926 134.24 78.9365 135.01 78.9781 135.781C78.8115 136.01 78.6448 136.188 78.4781 136.312C78.3115 136.417 78.0823 136.469 77.7906 136.469C77.499 136.469 77.2802 136.406 77.1344 136.281C76.9885 136.135 76.8844 135.969 76.8219 135.781C76.7594 135.573 76.7281 135.354 76.7281 135.125C76.7281 134.896 76.7281 134.688 76.7281 134.5ZM79.5094 128.438C80.1344 128.188 80.7385 127.854 81.3219 127.438C81.926 127.021 82.499 126.635 83.0406 126.281C83.1031 126.24 83.176 126.198 83.2594 126.156C83.3635 126.115 83.4573 126.062 83.5406 126C83.624 125.938 83.7281 125.865 83.8531 125.781V125.531L80.9781 117.344L80.8531 117.219C80.7906 117.344 80.7073 117.698 80.6031 118.281C80.5198 118.865 80.4156 119.625 80.2906 120.562C80.1865 121.479 80.0615 122.542 79.9156 123.75C79.7906 124.958 79.6552 126.25 79.5094 127.625V128.438ZM115.578 121.562C115.349 121.396 115.13 121.125 114.922 120.75C114.714 120.375 114.609 120.042 114.609 119.75C114.609 119.438 114.734 119.198 114.984 119.031C115.234 118.865 115.495 118.781 115.766 118.781C116.099 118.781 116.38 118.844 116.609 118.969C116.839 119.094 117.057 119.302 117.266 119.594C117.495 119.885 117.745 120.281 118.016 120.781C118.307 121.281 118.672 121.917 119.109 122.688C119.547 123.438 120.099 124.344 120.766 125.406C121.432 126.448 122.255 127.667 123.234 129.062C123.297 129.229 123.411 129.438 123.578 129.688C123.745 129.917 123.849 130.062 123.891 130.125L124.016 129.875L125.734 123.406L125.859 123.125L127.078 118.781C127.016 118.406 127.099 118.073 127.328 117.781C127.557 117.49 127.849 117.344 128.203 117.344C128.557 117.344 128.911 117.469 129.266 117.719C129.641 117.948 129.828 118.26 129.828 118.656V118.781L126.266 132.125C126.266 132.167 126.245 132.302 126.203 132.531C126.161 132.74 126.12 132.979 126.078 133.25C126.036 133.5 125.995 133.76 125.953 134.031C125.911 134.281 125.88 134.479 125.859 134.625C125.839 134.812 125.818 135.021 125.797 135.25C125.797 135.458 125.755 135.656 125.672 135.844C125.609 136.01 125.505 136.156 125.359 136.281C125.214 136.406 124.995 136.469 124.703 136.469C124.203 136.469 123.828 136.333 123.578 136.062C123.328 135.792 123.141 135.469 123.016 135.094C122.891 134.698 122.786 134.292 122.703 133.875C122.62 133.438 122.484 133.073 122.297 132.781L115.578 121.562ZM136.159 134.5C136.159 133.25 136.243 132.01 136.409 130.781C136.576 129.552 136.722 128.323 136.847 127.094C136.847 127.031 136.857 126.896 136.878 126.688C136.899 126.458 136.92 126.219 136.941 125.969C136.982 125.719 137.014 125.49 137.034 125.281C137.076 125.052 137.097 124.906 137.097 124.844V124.719L138.409 114.969C138.368 114.552 138.43 114.188 138.597 113.875C138.784 113.542 139.118 113.375 139.597 113.375C140.118 113.312 140.545 113.385 140.878 113.594C141.232 113.781 141.524 114.031 141.753 114.344C141.982 114.656 142.17 115 142.316 115.375C142.461 115.75 142.618 116.094 142.784 116.406C142.889 116.698 143.014 117.042 143.159 117.438C143.326 117.833 143.514 118.333 143.722 118.938C143.951 119.542 144.211 120.281 144.503 121.156C144.816 122.031 145.17 123.094 145.566 124.344L145.691 124.469C145.836 124.385 146.107 124.25 146.503 124.062C146.92 123.875 147.347 123.677 147.784 123.469C148.243 123.26 148.67 123.062 149.066 122.875C149.461 122.688 149.743 122.562 149.909 122.5C149.93 122.458 149.982 122.427 150.066 122.406C150.17 122.365 150.243 122.333 150.284 122.312H150.347C150.555 122.312 150.711 122.396 150.816 122.562C150.92 122.708 150.972 122.854 150.972 123C150.972 123.229 150.92 123.427 150.816 123.594C150.711 123.76 150.586 123.917 150.441 124.062C150.316 124.188 150.17 124.312 150.003 124.438C149.857 124.562 149.743 124.698 149.659 124.844L146.566 126.406C146.482 126.51 146.441 126.594 146.441 126.656C146.441 126.823 146.524 127.083 146.691 127.438C146.878 127.792 147.024 128.073 147.128 128.281C147.191 128.406 147.295 128.635 147.441 128.969C147.586 129.302 147.743 129.646 147.909 130C148.076 130.354 148.232 130.698 148.378 131.031C148.545 131.344 148.659 131.562 148.722 131.688V131.781C148.722 132.531 148.347 132.906 147.597 132.906C147.368 132.906 147.128 132.885 146.878 132.844C146.628 132.781 146.441 132.625 146.316 132.375L144.222 127.906H143.941C143.149 128.51 142.305 129.104 141.409 129.688C140.514 130.271 139.597 130.771 138.659 131.188C138.514 131.938 138.42 132.698 138.378 133.469C138.357 134.24 138.368 135.01 138.409 135.781C138.243 136.01 138.076 136.188 137.909 136.312C137.743 136.417 137.514 136.469 137.222 136.469C136.93 136.469 136.711 136.406 136.566 136.281C136.42 136.135 136.316 135.969 136.253 135.781C136.191 135.573 136.159 135.354 136.159 135.125C136.159 134.896 136.159 134.688 136.159 134.5ZM138.941 128.438C139.566 128.188 140.17 127.854 140.753 127.438C141.357 127.021 141.93 126.635 142.472 126.281C142.534 126.24 142.607 126.198 142.691 126.156C142.795 126.115 142.889 126.062 142.972 126C143.055 125.938 143.159 125.865 143.284 125.781V125.531L140.409 117.344L140.284 117.219C140.222 117.344 140.139 117.698 140.034 118.281C139.951 118.865 139.847 119.625 139.722 120.562C139.618 121.479 139.493 122.542 139.347 123.75C139.222 124.958 139.086 126.25 138.941 127.625V128.438ZM166.147 133.969C165.939 133.74 165.741 133.51 165.553 133.281C165.366 133.052 165.157 132.844 164.928 132.656L164.866 132.625C164.782 132.625 164.616 132.802 164.366 133.156C164.136 133.49 163.824 133.875 163.428 134.312C163.053 134.729 162.605 135.115 162.084 135.469C161.584 135.802 161.011 135.969 160.366 135.969C159.741 135.969 159.209 135.792 158.772 135.438C158.334 135.083 157.97 134.646 157.678 134.125C157.407 133.583 157.209 133.01 157.084 132.406C156.959 131.802 156.897 131.25 156.897 130.75C156.897 130.438 156.918 130.135 156.959 129.844C157.022 129.552 157.043 129.26 157.022 128.969C157.084 128.698 157.189 128.219 157.334 127.531C157.501 126.844 157.668 126.115 157.834 125.344C158.022 124.552 158.199 123.812 158.366 123.125C158.532 122.438 158.647 121.958 158.709 121.688C158.73 121.562 158.793 121.354 158.897 121.062C159.001 120.771 159.105 120.458 159.209 120.125C159.334 119.771 159.449 119.448 159.553 119.156C159.657 118.865 159.73 118.656 159.772 118.531C159.876 118.448 159.949 118.365 159.991 118.281C160.053 118.198 160.105 118.125 160.147 118.062C160.209 118 160.272 117.948 160.334 117.906C160.418 117.865 160.532 117.844 160.678 117.844C160.991 117.844 161.314 117.917 161.647 118.062C162.001 118.208 162.22 118.458 162.303 118.812C162.345 118.979 162.345 119.073 162.303 119.094C162.261 119.094 162.303 119.167 162.428 119.312C162.72 119.208 163.022 119.146 163.334 119.125C163.647 119.083 163.949 119.062 164.241 119.062C164.803 119.062 165.241 119.24 165.553 119.594C165.886 119.927 166.126 120.344 166.272 120.844C166.439 121.323 166.543 121.833 166.584 122.375C166.626 122.896 166.647 123.354 166.647 123.75C166.647 123.938 166.636 124.167 166.616 124.438C166.595 124.708 166.574 124.99 166.553 125.281C166.532 125.573 166.511 125.865 166.491 126.156C166.491 126.427 166.501 126.656 166.522 126.844L165.866 129.875C165.845 129.875 165.918 129.979 166.084 130.188C166.272 130.396 166.418 130.562 166.522 130.688C166.543 130.708 166.595 130.771 166.678 130.875C166.782 130.958 166.876 131.052 166.959 131.156C167.064 131.24 167.157 131.333 167.241 131.438C167.324 131.521 167.376 131.573 167.397 131.594C167.439 131.615 167.47 131.656 167.491 131.719C167.532 131.781 167.564 131.833 167.584 131.875L174.022 138.594C174.043 138.615 174.084 138.688 174.147 138.812C174.209 138.938 174.261 139.031 174.303 139.094V139.125C174.303 139.146 174.314 139.167 174.334 139.188C174.334 139.542 174.22 139.833 173.991 140.062C173.761 140.312 173.491 140.438 173.178 140.438C173.011 140.438 172.824 140.417 172.616 140.375C172.428 140.354 172.282 140.292 172.178 140.188L166.147 133.969ZM159.522 130.25C159.418 130.729 159.418 131.188 159.522 131.625C159.626 132.062 159.761 132.49 159.928 132.906C159.97 132.99 160.022 133.125 160.084 133.312C160.168 133.5 160.261 133.594 160.366 133.594C160.553 133.594 160.772 133.5 161.022 133.312C161.293 133.104 161.553 132.865 161.803 132.594C162.053 132.302 162.261 132.01 162.428 131.719C162.595 131.406 162.678 131.146 162.678 130.938C162.678 130.667 162.584 130.448 162.397 130.281C162.23 130.115 162.147 129.896 162.147 129.625C162.147 129.312 162.199 129.094 162.303 128.969C162.428 128.844 162.574 128.76 162.741 128.719C162.907 128.677 163.074 128.646 163.241 128.625C163.428 128.604 163.595 128.542 163.741 128.438C163.845 128.354 163.939 128.125 164.022 127.75C164.126 127.375 164.209 126.969 164.272 126.531C164.355 126.094 164.418 125.677 164.459 125.281C164.501 124.865 164.522 124.573 164.522 124.406C164.522 124.177 164.522 123.917 164.522 123.625C164.522 123.333 164.511 123.042 164.491 122.75C164.47 122.438 164.428 122.135 164.366 121.844C164.324 121.552 164.251 121.281 164.147 121.031H163.959C163.543 121.031 163.157 121.146 162.803 121.375C162.47 121.604 162.168 121.885 161.897 122.219C161.647 122.552 161.418 122.917 161.209 123.312C161.001 123.688 160.824 124.031 160.678 124.344C160.636 124.448 160.574 124.594 160.491 124.781C160.407 124.969 160.386 125.135 160.428 125.281L159.522 130.25ZM186.384 132.062C186.155 132.5 185.874 132.99 185.541 133.531C185.228 134.073 184.853 134.594 184.416 135.094C183.999 135.573 183.541 135.979 183.041 136.312C182.561 136.646 182.041 136.812 181.478 136.812C180.77 136.812 180.207 136.604 179.791 136.188C179.374 135.771 179.051 135.26 178.822 134.656C178.614 134.031 178.478 133.385 178.416 132.719C178.353 132.031 178.322 131.417 178.322 130.875V130.062C178.343 129.896 178.364 129.646 178.384 129.312C178.426 128.979 178.468 128.604 178.509 128.188C178.572 127.75 178.624 127.302 178.666 126.844C178.707 126.365 178.749 125.917 178.791 125.5C178.853 125.062 178.895 124.677 178.916 124.344C178.957 124.01 178.989 123.76 179.009 123.594C178.926 123.385 178.895 123.177 178.916 122.969C178.957 122.74 179.03 122.542 179.134 122.375C179.259 122.188 179.416 122.042 179.603 121.938C179.791 121.812 179.999 121.75 180.228 121.75C180.291 121.75 180.395 121.771 180.541 121.812C180.707 121.854 180.874 121.917 181.041 122C181.207 122.083 181.353 122.177 181.478 122.281C181.603 122.365 181.666 122.448 181.666 122.531V123.719C181.374 125.969 181.186 127.76 181.103 129.094C181.02 130.427 180.989 131.469 181.009 132.219C181.03 132.948 181.093 133.448 181.197 133.719C181.301 133.99 181.405 134.177 181.509 134.281C181.759 134.385 181.999 134.417 182.228 134.375C182.478 134.312 182.77 134.115 183.103 133.781C183.436 133.448 183.832 132.938 184.291 132.25C184.77 131.542 185.343 130.604 186.009 129.438C186.051 129.375 186.093 129.26 186.134 129.094C186.197 128.927 186.239 128.812 186.259 128.75C186.218 127.375 186.207 125.99 186.228 124.594C186.27 123.198 186.322 121.812 186.384 120.438C186.468 120.229 186.603 120.062 186.791 119.938C186.978 119.812 187.176 119.75 187.384 119.75C187.468 119.75 187.593 119.781 187.759 119.844C187.926 119.906 188.093 120 188.259 120.125C188.426 120.229 188.572 120.344 188.697 120.469C188.822 120.594 188.884 120.719 188.884 120.844V130.062C189.03 131 189.145 131.948 189.228 132.906C189.311 133.844 189.426 134.781 189.572 135.719C189.572 135.823 189.593 136.042 189.634 136.375C189.697 136.688 189.759 137.031 189.822 137.406C189.884 137.781 189.936 138.125 189.978 138.438C190.041 138.75 190.082 138.948 190.103 139.031V139.406C190.103 140.156 189.697 140.562 188.884 140.625C188.53 140.667 188.228 140.51 187.978 140.156C187.749 139.823 187.561 139.375 187.416 138.812C187.27 138.271 187.145 137.656 187.041 136.969C186.957 136.281 186.884 135.615 186.822 134.969C186.759 134.323 186.697 133.74 186.634 133.219C186.572 132.677 186.489 132.292 186.384 132.062ZM197.528 135.781C197.32 134.948 197.164 134.167 197.059 133.438C196.955 132.688 196.882 131.896 196.841 131.062C196.82 130.583 196.82 130.177 196.841 129.844C196.861 129.49 196.82 129.104 196.716 128.688C196.695 128.604 196.643 128.542 196.559 128.5C196.497 128.458 196.424 128.406 196.341 128.344C196.278 128.281 196.216 128.208 196.153 128.125C196.091 128.021 196.059 127.865 196.059 127.656C196.059 127.49 196.091 127.344 196.153 127.219C196.236 127.094 196.309 126.979 196.372 126.875C196.455 126.75 196.528 126.625 196.591 126.5C196.674 126.354 196.716 126.188 196.716 126V125.531C196.716 125.323 196.695 124.969 196.653 124.469C196.611 123.969 196.57 123.438 196.528 122.875C196.486 122.312 196.445 121.781 196.403 121.281C196.382 120.781 196.361 120.438 196.341 120.25C196.32 119.896 196.226 119.583 196.059 119.312C195.893 119.042 195.809 118.729 195.809 118.375C195.809 117.708 195.945 117.24 196.216 116.969C196.486 116.698 196.966 116.562 197.653 116.562C197.799 116.562 197.914 116.625 197.997 116.75C198.101 116.875 198.216 116.938 198.341 116.938H198.466C198.528 116.917 198.622 116.896 198.747 116.875C198.872 116.833 198.955 116.812 198.997 116.812C200.747 116.062 202.111 115.479 203.091 115.062C204.07 114.646 204.809 114.344 205.309 114.156C205.809 113.969 206.143 113.865 206.309 113.844C206.497 113.823 206.653 113.844 206.778 113.906C207.028 113.948 207.195 114.031 207.278 114.156C207.382 114.26 207.434 114.427 207.434 114.656C207.434 114.865 207.403 115.073 207.341 115.281C207.278 115.49 207.132 115.646 206.903 115.75L202.809 117.719L202.684 117.844L199.247 119.312C199.122 119.354 199.049 119.458 199.028 119.625C199.007 119.792 198.997 119.927 198.997 120.031C198.997 120.198 199.018 120.5 199.059 120.938C199.101 121.375 199.143 121.833 199.184 122.312C199.226 122.771 199.268 123.188 199.309 123.562C199.372 123.917 199.414 124.094 199.434 124.094H199.466C199.466 124.094 199.476 124.083 199.497 124.062C199.726 123.896 200.091 123.615 200.591 123.219C201.091 122.802 201.601 122.385 202.122 121.969C202.643 121.552 203.101 121.188 203.497 120.875C203.893 120.542 204.101 120.375 204.122 120.375C204.351 120.375 204.559 120.49 204.747 120.719C204.934 120.948 205.028 121.188 205.028 121.438C205.028 121.688 204.976 121.969 204.872 122.281C204.768 122.594 204.601 122.833 204.372 123L199.497 127.344C199.497 127.344 199.497 127.396 199.497 127.5C199.497 127.604 199.486 127.719 199.466 127.844C199.466 127.969 199.466 128.104 199.466 128.25C199.466 128.375 199.466 128.479 199.466 128.562C199.466 129.312 199.518 130.062 199.622 130.812C199.726 131.542 199.778 132.281 199.778 133.031H199.903C199.924 133.031 200.018 132.948 200.184 132.781C200.351 132.615 200.476 132.479 200.559 132.375C200.601 132.312 200.695 132.177 200.841 131.969C201.007 131.76 201.278 131.417 201.653 130.938C202.028 130.458 202.528 129.823 203.153 129.031C203.778 128.24 204.58 127.24 205.559 126.031C205.643 125.948 205.757 125.823 205.903 125.656C206.07 125.49 206.174 125.406 206.216 125.406C206.278 125.344 206.403 125.323 206.591 125.344C206.799 125.344 206.945 125.365 207.028 125.406C207.132 125.448 207.268 125.562 207.434 125.75C207.601 125.938 207.684 126.115 207.684 126.281C207.684 126.531 207.549 126.865 207.278 127.281C207.028 127.677 206.726 128.094 206.372 128.531C206.018 128.969 205.664 129.396 205.309 129.812C204.955 130.208 204.684 130.531 204.497 130.781C204.205 131.24 203.851 131.802 203.434 132.469C203.039 133.115 202.601 133.74 202.122 134.344C201.643 134.927 201.111 135.438 200.528 135.875C199.966 136.292 199.361 136.5 198.716 136.5C198.403 136.5 198.174 136.448 198.028 136.344C197.903 136.24 197.736 136.052 197.528 135.781ZM215.453 129.219C215.328 128.948 215.224 128.729 215.141 128.562C215.078 128.396 215.047 128.198 215.047 127.969C215.047 127.781 215.068 127.615 215.109 127.469C215.172 127.302 215.203 127.125 215.203 126.938C215.203 126.479 215.182 126.052 215.141 125.656C215.12 125.26 215.089 124.823 215.047 124.344C215.026 124.281 214.953 124.229 214.828 124.188C214.703 124.146 214.568 124.094 214.422 124.031C214.276 123.948 214.141 123.833 214.016 123.688C213.911 123.542 213.859 123.333 213.859 123.062C213.859 122.812 213.911 122.604 214.016 122.438C214.141 122.25 214.266 122.083 214.391 121.938C214.516 121.771 214.63 121.604 214.734 121.438C214.859 121.25 214.922 121.031 214.922 120.781C214.922 120.677 214.911 120.49 214.891 120.219C214.87 119.927 214.849 119.625 214.828 119.312C214.828 119 214.818 118.708 214.797 118.438C214.797 118.146 214.797 117.948 214.797 117.844V117.781V117.719C214.88 117.531 214.943 117.375 214.984 117.25C215.047 117.125 215.109 117.031 215.172 116.969C215.234 116.906 215.318 116.865 215.422 116.844C215.526 116.802 215.661 116.781 215.828 116.781C216.266 116.781 216.589 116.865 216.797 117.031C217.005 117.198 217.151 117.396 217.234 117.625C217.318 117.833 217.37 118.031 217.391 118.219C217.411 118.406 217.464 118.51 217.547 118.531L219.797 116.562H219.922C220.651 116.083 221.422 115.719 222.234 115.469C223.047 115.198 223.901 115.062 224.797 115.062C225.068 115.062 225.391 115.094 225.766 115.156C226.161 115.219 226.526 115.333 226.859 115.5C227.214 115.646 227.505 115.844 227.734 116.094C227.984 116.344 228.109 116.656 228.109 117.031C228.109 117.448 228.057 117.875 227.953 118.312C227.849 118.75 227.703 119.188 227.516 119.625C227.349 120.042 227.141 120.448 226.891 120.844C226.661 121.219 226.411 121.542 226.141 121.812C226.036 122.042 225.37 122.625 224.141 123.562C222.911 124.5 221.078 125.896 218.641 127.75L233.641 128.688C233.849 128.708 234.13 128.729 234.484 128.75C234.859 128.75 235.214 128.781 235.547 128.844C235.901 128.906 236.203 129.031 236.453 129.219C236.703 129.385 236.828 129.646 236.828 130C236.828 130.188 236.797 130.344 236.734 130.469C236.693 130.573 236.63 130.667 236.547 130.75C236.484 130.812 236.401 130.875 236.297 130.938C236.214 131 236.13 131.083 236.047 131.188H235.516H234.984C234.568 131.146 234.13 131.094 233.672 131.031C233.234 130.969 232.714 130.896 232.109 130.812C231.526 130.729 230.839 130.646 230.047 130.562C229.255 130.479 228.307 130.406 227.203 130.344C226.099 130.281 224.807 130.229 223.328 130.188C221.87 130.146 220.172 130.125 218.234 130.125C218.214 130.125 218.182 130.156 218.141 130.219C218.12 130.281 218.109 130.333 218.109 130.375C218.109 131.167 218.172 131.948 218.297 132.719C218.443 133.469 218.516 134.219 218.516 134.969C218.516 135.115 218.495 135.281 218.453 135.469C218.432 135.635 218.38 135.802 218.297 135.969C218.214 136.115 218.109 136.24 217.984 136.344C217.859 136.448 217.703 136.5 217.516 136.5C217.391 136.5 217.245 136.479 217.078 136.438C216.911 136.375 216.745 136.292 216.578 136.188C216.432 136.083 216.297 135.969 216.172 135.844C216.047 135.719 215.974 135.573 215.953 135.406L215.453 129.219ZM217.547 122.312C217.547 122.833 217.557 123.323 217.578 123.781C217.599 124.24 217.63 124.74 217.672 125.281H217.766C217.786 125.281 217.839 125.26 217.922 125.219C218.005 125.177 218.214 125.052 218.547 124.844C218.88 124.615 219.391 124.271 220.078 123.812C220.766 123.333 221.734 122.667 222.984 121.812C223.234 121.667 223.505 121.417 223.797 121.062C224.089 120.708 224.359 120.323 224.609 119.906C224.859 119.49 225.068 119.083 225.234 118.688C225.401 118.271 225.484 117.927 225.484 117.656C225.484 117.448 225.38 117.344 225.172 117.344C224.984 117.344 224.818 117.344 224.672 117.344C224.359 117.344 224.005 117.396 223.609 117.5C223.214 117.604 222.734 117.812 222.172 118.125C221.63 118.438 220.974 118.885 220.203 119.469C219.453 120.052 218.568 120.833 217.547 121.812V122.312ZM242.566 130.938C242.586 130.812 242.586 130.479 242.566 129.938C242.545 129.396 242.534 128.729 242.534 127.938C242.555 127.125 242.576 126.24 242.597 125.281C242.639 124.323 242.711 123.354 242.816 122.375C242.941 121.396 243.107 120.458 243.316 119.562C243.545 118.646 243.836 117.854 244.191 117.188C244.316 116.625 244.618 116.24 245.097 116.031C245.576 115.802 246.253 115.667 247.128 115.625C247.691 115.625 248.17 115.771 248.566 116.062C248.961 116.354 249.295 116.719 249.566 117.156C249.857 117.573 250.107 118.031 250.316 118.531C250.524 119.031 250.711 119.479 250.878 119.875V120.031C251.024 120.448 251.128 121.073 251.191 121.906C251.274 122.719 251.326 123.583 251.347 124.5C251.389 125.396 251.409 126.26 251.409 127.094C251.409 127.927 251.409 128.562 251.409 129C251.409 129.625 251.326 130.375 251.159 131.25C250.993 132.104 250.722 132.917 250.347 133.688C249.993 134.458 249.524 135.115 248.941 135.656C248.357 136.198 247.659 136.469 246.847 136.469C246.159 136.469 245.545 136.292 245.003 135.938C244.482 135.583 244.034 135.135 243.659 134.594C243.305 134.031 243.034 133.427 242.847 132.781C242.659 132.135 242.566 131.521 242.566 130.938ZM245.597 133.031C245.639 133.26 245.753 133.5 245.941 133.75C246.149 133.979 246.389 134.094 246.659 134.094H246.909C247.784 133.302 248.357 132.396 248.628 131.375C248.899 130.333 249.034 129.24 249.034 128.094C249.034 127.823 249.024 127.406 249.003 126.844C248.982 126.281 248.941 125.656 248.878 124.969C248.836 124.26 248.774 123.521 248.691 122.75C248.607 121.979 248.503 121.26 248.378 120.594C248.253 119.906 248.107 119.312 247.941 118.812C247.774 118.312 247.576 117.969 247.347 117.781C247.326 117.802 247.295 117.844 247.253 117.906C247.232 117.969 247.222 118.01 247.222 118.031C246.784 118.573 246.389 119.312 246.034 120.25C245.68 121.188 245.409 122.302 245.222 123.594C245.055 124.865 244.982 126.302 245.003 127.906C245.045 129.49 245.243 131.198 245.597 133.031ZM281.416 122.75C281.395 122.583 281.364 122.375 281.322 122.125C281.301 121.854 281.27 121.604 281.228 121.375C281.207 121.125 281.186 120.917 281.166 120.75C281.145 120.583 281.134 120.5 281.134 120.5H280.884L277.322 121.562C277.218 121.729 277.041 121.812 276.791 121.812C276.561 121.812 276.384 121.812 276.259 121.812C275.968 121.812 275.666 121.688 275.353 121.438C275.061 121.167 274.916 120.875 274.916 120.562C274.916 120.333 274.989 120.115 275.134 119.906C275.301 119.677 275.499 119.521 275.728 119.438L280.759 117.844C280.822 117.615 280.936 117.385 281.103 117.156C281.291 116.906 281.53 116.781 281.822 116.781C282.114 116.781 282.353 116.854 282.541 117C282.749 117.146 282.978 117.26 283.228 117.344C283.416 117.323 283.728 117.26 284.166 117.156C284.603 117.052 285.061 116.948 285.541 116.844C286.041 116.719 286.509 116.604 286.947 116.5C287.384 116.396 287.686 116.323 287.853 116.281C288.103 116.24 288.291 116.188 288.416 116.125C288.541 116.062 288.739 116.031 289.009 116.031C289.364 116.031 289.728 116.135 290.103 116.344C290.478 116.552 290.666 116.865 290.666 117.281C290.666 117.552 290.572 117.792 290.384 118C290.197 118.188 289.968 118.312 289.697 118.375L283.759 119.875V120.156C283.759 120.802 283.811 121.438 283.916 122.062C284.041 122.688 284.082 123.312 284.041 123.938L285.103 133.594V134.281C285.103 134.531 285.093 134.792 285.072 135.062C285.072 135.312 285.03 135.542 284.947 135.75C284.884 135.958 284.77 136.135 284.603 136.281C284.436 136.406 284.186 136.469 283.853 136.469C283.603 136.469 283.332 136.365 283.041 136.156C282.77 135.948 282.624 135.698 282.603 135.406L281.416 123V122.75ZM295.872 135.781C295.664 134.948 295.507 134.167 295.403 133.438C295.299 132.688 295.226 131.896 295.184 131.062C295.164 130.583 295.164 130.177 295.184 129.844C295.205 129.49 295.164 129.104 295.059 128.688C295.039 128.604 294.986 128.542 294.903 128.5C294.841 128.458 294.768 128.406 294.684 128.344C294.622 128.281 294.559 128.208 294.497 128.125C294.434 128.021 294.403 127.865 294.403 127.656C294.403 127.49 294.434 127.344 294.497 127.219C294.58 127.094 294.653 126.979 294.716 126.875C294.799 126.75 294.872 126.625 294.934 126.5C295.018 126.354 295.059 126.188 295.059 126V125.531C295.059 125.323 295.039 124.969 294.997 124.469C294.955 123.969 294.914 123.438 294.872 122.875C294.83 122.312 294.789 121.781 294.747 121.281C294.726 120.781 294.705 120.438 294.684 120.25C294.664 119.896 294.57 119.583 294.403 119.312C294.236 119.042 294.153 118.729 294.153 118.375C294.153 117.708 294.289 117.24 294.559 116.969C294.83 116.698 295.309 116.562 295.997 116.562C296.143 116.562 296.257 116.625 296.341 116.75C296.445 116.875 296.559 116.938 296.684 116.938H296.809C296.872 116.917 296.966 116.896 297.091 116.875C297.216 116.833 297.299 116.812 297.341 116.812C299.091 116.062 300.455 115.479 301.434 115.062C302.414 114.646 303.153 114.344 303.653 114.156C304.153 113.969 304.486 113.865 304.653 113.844C304.841 113.823 304.997 113.844 305.122 113.906C305.372 113.948 305.539 114.031 305.622 114.156C305.726 114.26 305.778 114.427 305.778 114.656C305.778 114.865 305.747 115.073 305.684 115.281C305.622 115.49 305.476 115.646 305.247 115.75L301.153 117.719L301.028 117.844L297.591 119.312C297.466 119.354 297.393 119.458 297.372 119.625C297.351 119.792 297.341 119.927 297.341 120.031C297.341 120.198 297.361 120.5 297.403 120.938C297.445 121.375 297.486 121.833 297.528 122.312C297.57 122.771 297.611 123.188 297.653 123.562C297.716 123.917 297.757 124.094 297.778 124.094H297.809C297.809 124.094 297.82 124.083 297.841 124.062C298.07 123.896 298.434 123.615 298.934 123.219C299.434 122.802 299.945 122.385 300.466 121.969C300.986 121.552 301.445 121.188 301.841 120.875C302.236 120.542 302.445 120.375 302.466 120.375C302.695 120.375 302.903 120.49 303.091 120.719C303.278 120.948 303.372 121.188 303.372 121.438C303.372 121.688 303.32 121.969 303.216 122.281C303.111 122.594 302.945 122.833 302.716 123L297.841 127.344C297.841 127.344 297.841 127.396 297.841 127.5C297.841 127.604 297.83 127.719 297.809 127.844C297.809 127.969 297.809 128.104 297.809 128.25C297.809 128.375 297.809 128.479 297.809 128.562C297.809 129.312 297.861 130.062 297.966 130.812C298.07 131.542 298.122 132.281 298.122 133.031H298.247C298.268 133.031 298.361 132.948 298.528 132.781C298.695 132.615 298.82 132.479 298.903 132.375C298.945 132.312 299.039 132.177 299.184 131.969C299.351 131.76 299.622 131.417 299.997 130.938C300.372 130.458 300.872 129.823 301.497 129.031C302.122 128.24 302.924 127.24 303.903 126.031C303.986 125.948 304.101 125.823 304.247 125.656C304.414 125.49 304.518 125.406 304.559 125.406C304.622 125.344 304.747 125.323 304.934 125.344C305.143 125.344 305.289 125.365 305.372 125.406C305.476 125.448 305.611 125.562 305.778 125.75C305.945 125.938 306.028 126.115 306.028 126.281C306.028 126.531 305.893 126.865 305.622 127.281C305.372 127.677 305.07 128.094 304.716 128.531C304.361 128.969 304.007 129.396 303.653 129.812C303.299 130.208 303.028 130.531 302.841 130.781C302.549 131.24 302.195 131.802 301.778 132.469C301.382 133.115 300.945 133.74 300.466 134.344C299.986 134.927 299.455 135.438 298.872 135.875C298.309 136.292 297.705 136.5 297.059 136.5C296.747 136.5 296.518 136.448 296.372 136.344C296.247 136.24 296.08 136.052 295.872 135.781ZM312.422 131.625C312.422 130.021 312.443 128.427 312.484 126.844C312.547 125.26 312.578 123.656 312.578 122.031C312.578 121.094 312.526 120.156 312.422 119.219C312.339 118.281 312.297 117.344 312.297 116.406C312.297 116.115 312.38 115.865 312.547 115.656C312.734 115.448 312.974 115.344 313.266 115.344C313.766 115.344 314.141 115.448 314.391 115.656C314.641 115.865 314.818 116.125 314.922 116.438C315.026 116.75 315.078 117.104 315.078 117.5C315.078 117.896 315.078 118.281 315.078 118.656C315.078 118.74 315.078 118.948 315.078 119.281C315.099 119.615 315.12 119.979 315.141 120.375C315.161 120.75 315.172 121.104 315.172 121.438C315.193 121.771 315.203 121.979 315.203 122.062V123.094C315.203 124.448 315.182 125.792 315.141 127.125C315.099 128.458 315.078 129.812 315.078 131.188V132.5C315.078 132.604 315.089 132.75 315.109 132.938C315.151 133.104 315.182 133.188 315.203 133.188H315.453L322.859 130.25C323.026 130.104 323.172 130.031 323.297 130.031C323.422 130.01 323.568 130 323.734 130C323.839 130 323.974 130.01 324.141 130.031C324.307 130.031 324.464 130.062 324.609 130.125C324.776 130.167 324.911 130.24 325.016 130.344C325.141 130.427 325.203 130.562 325.203 130.75C325.203 131.229 324.943 131.646 324.422 132C323.755 132.354 323.068 132.688 322.359 133C321.651 133.292 320.932 133.531 320.203 133.719L320.047 133.844C319.047 134.115 318.109 134.51 317.234 135.031C316.38 135.552 315.484 136.031 314.547 136.469H314.266C313.703 136.469 313.286 136.281 313.016 135.906C312.745 135.531 312.568 135.094 312.484 134.594C312.401 134.073 312.37 133.542 312.391 133C312.411 132.438 312.422 131.979 312.422 131.625ZM331.191 131.625C331.191 130.021 331.211 128.427 331.253 126.844C331.316 125.26 331.347 123.656 331.347 122.031C331.347 121.094 331.295 120.156 331.191 119.219C331.107 118.281 331.066 117.344 331.066 116.406C331.066 116.115 331.149 115.865 331.316 115.656C331.503 115.448 331.743 115.344 332.034 115.344C332.534 115.344 332.909 115.448 333.159 115.656C333.409 115.865 333.586 116.125 333.691 116.438C333.795 116.75 333.847 117.104 333.847 117.5C333.847 117.896 333.847 118.281 333.847 118.656C333.847 118.74 333.847 118.948 333.847 119.281C333.868 119.615 333.889 119.979 333.909 120.375C333.93 120.75 333.941 121.104 333.941 121.438C333.961 121.771 333.972 121.979 333.972 122.062V123.094C333.972 124.448 333.951 125.792 333.909 127.125C333.868 128.458 333.847 129.812 333.847 131.188V132.5C333.847 132.604 333.857 132.75 333.878 132.938C333.92 133.104 333.951 133.188 333.972 133.188H334.222L341.628 130.25C341.795 130.104 341.941 130.031 342.066 130.031C342.191 130.01 342.336 130 342.503 130C342.607 130 342.743 130.01 342.909 130.031C343.076 130.031 343.232 130.062 343.378 130.125C343.545 130.167 343.68 130.24 343.784 130.344C343.909 130.427 343.972 130.562 343.972 130.75C343.972 131.229 343.711 131.646 343.191 132C342.524 132.354 341.836 132.688 341.128 133C340.42 133.292 339.701 133.531 338.972 133.719L338.816 133.844C337.816 134.115 336.878 134.51 336.003 135.031C335.149 135.552 334.253 136.031 333.316 136.469H333.034C332.472 136.469 332.055 136.281 331.784 135.906C331.514 135.531 331.336 135.094 331.253 134.594C331.17 134.073 331.139 133.542 331.159 133C331.18 132.438 331.191 131.979 331.191 131.625Z" fill="#E63A27"/>
</svg>
